<?xml version="1.0" encoding="UTF-8" standalone="no"?>
<!-- Created with Inkscape (http://www.inkscape.org/) -->

<svg
   xmlns:dc="http://purl.org/dc/elements/1.1/"
   xmlns:cc="http://creativecommons.org/ns#"
   xmlns:rdf="http://www.w3.org/1999/02/22-rdf-syntax-ns#"
   xmlns:svg="http://www.w3.org/2000/svg"
   xmlns="http://www.w3.org/2000/svg"
   xmlns:sodipodi="http://sodipodi.sourceforge.net/DTD/sodipodi-0.dtd"
   xmlns:inkscape="http://www.inkscape.org/namespaces/inkscape"
   width="148.03905mm"
   height="90.764824mm"
   viewBox="0 0 148.03905 90.764824"
   version="1.1"
   id="svg8"
   inkscape:version="0.92.3 (2405546, 2018-03-11)"
   sodipodi:docname="OpenDataBaseLogo.svg">
  <defs
     id="defs2" />
  <sodipodi:namedview
     id="base"
     pagecolor="#ffffff"
     bordercolor="#666666"
     borderopacity="1.0"
     inkscape:pageopacity="0.0"
     inkscape:pageshadow="2"
     inkscape:zoom="0.35"
     inkscape:cx="-187.52993"
     inkscape:cy="-10.095206"
     inkscape:document-units="mm"
     inkscape:current-layer="layer1"
     showgrid="false"
     fit-margin-top="0"
     fit-margin-left="0"
     fit-margin-right="0"
     fit-margin-bottom="0"
     inkscape:window-width="1853"
     inkscape:window-height="1025"
     inkscape:window-x="67"
     inkscape:window-y="27"
     inkscape:window-maximized="1" />
  <metadata
     id="metadata5">
    <rdf:RDF>
      <cc:Work
         rdf:about="">
        <dc:format>image/svg+xml</dc:format>
        <dc:type
           rdf:resource="http://purl.org/dc/dcmitype/StillImage" />
        <dc:title></dc:title>
      </cc:Work>
    </rdf:RDF>
  </metadata>
  <g
     inkscape:label="Layer 1"
     inkscape:groupmode="layer"
     id="layer1"
     transform="translate(-16.355389,-55.397486)">
    <g
       id="g343"
       transform="matrix(0.29778383,0,0,0.29778383,3.5628934,55.397486)">
      <g
         id="g284">
        <path
           id="path276"
           d="M 184.54,130 H 89.959 V 65.722 C 89.959,46.065 106.662,30 126.319,30 h 0.445 c 19.657,0 35.194,16.064 35.194,35.722 v 26.305 c 0,8.284 6.716,15 15,15 8.284,0 15,-6.716 15,-15 V 65.722 C 191.958,29.522 162.963,0 126.764,0 h -0.445 C 90.12,0 59.959,29.522 59.959,65.722 v 65.556 c -10,3.307 -17,12.688 -17,23.723 v 116 c 0,13.785 11.799,25 25.584,25 H 184.54 c 13.785,0 24.418,-11.215 24.418,-25 V 155 c 0,-13.785 -10.632,-25 -24.418,-25 z m -88.29,57.725 c 0,-16.568 13.579,-30 30.146,-30 16.567,0 29.781,13.432 29.781,30 0,11.1 -6.219,20.787 -15.219,25.976 v 41.782 c 0,8.221 -6.779,14.88 -14.999,14.88 -8.221,0 -15.001,-6.659 -15.001,-14.88 V 213.7 C 101.959,208.511 96.25,198.824 96.25,187.725 Z"
           inkscape:connector-curvature="0" />
        <path
           id="path278"
           d="m 245.542,91 h -17 c -4.143,0 -7.5,3.357 -7.5,7.5 0,4.143 3.357,7.5 7.5,7.5 h 17 c 4.143,0 7.5,-3.357 7.5,-7.5 0,-4.143 -3.358,-7.5 -7.5,-7.5 z"
           inkscape:connector-curvature="0" />
        <path
           id="path280"
           d="m 216.616,82.853 c 1.919,0 3.839,-0.732 5.304,-2.196 l 12.021,-12.021 c 2.929,-2.93 2.929,-7.678 0,-10.608 -2.93,-2.928 -7.678,-2.928 -10.607,0 l -12.021,12.021 c -2.929,2.93 -2.929,7.678 0,10.608 1.464,1.463 3.384,2.196 5.303,2.196 z"
           inkscape:connector-curvature="0" />
        <path
           id="path282"
           d="m 221.919,116.658 c -2.93,-2.93 -7.679,-2.929 -10.607,0.001 -2.929,2.929 -2.929,7.678 10e-4,10.606 l 12.022,12.02 c 1.465,1.465 3.384,2.196 5.303,2.196 1.919,0 3.84,-0.732 5.304,-2.197 2.929,-2.929 2.929,-7.678 -0.001,-10.606 z"
           inkscape:connector-curvature="0" />
      </g>
      <g
         id="g286" />
      <g
         id="g288" />
      <g
         id="g290" />
      <g
         id="g292" />
      <g
         id="g294" />
      <g
         id="g296" />
      <g
         id="g298" />
      <g
         id="g300" />
      <g
         id="g302" />
      <g
         id="g304" />
      <g
         id="g306" />
      <g
         id="g308" />
      <g
         id="g310" />
      <g
         id="g312" />
      <g
         id="g314" />
    </g>
    <path
       id="path345"
       d="m 156.6917,130.75683 c -3.34722,0 -6.20098,2.147 -7.26144,5.13516 h -21.59443 c -0.77495,-2.18512 -2.50874,-3.91891 -4.69385,-4.69386 v -5.78508 c 6.13946,-0.17719 11.86101,-0.98759 16.32553,-2.32687 4.14156,-1.24234 9.35027,-3.58459 9.35027,-7.90601 V 68.792539 c 0,-4.32142 -5.20871,-6.66367 -9.35027,-7.90601 -5.08167,-1.5245 -11.79215,-2.36431 -18.89311,-2.36431 -7.10097,0 -13.81145,0.83981 -18.89312,2.36431 -4.141564,1.24234 -9.350271,3.58459 -9.350271,7.90601 v 46.387631 c 0,1.3199 0.537587,3.27567 3.099817,5.09237 1.52115,1.07918 3.62403,2.02598 6.250454,2.81364 4.46519,1.33928 10.18607,2.14968 16.32554,2.32687 v 5.78508 c -2.18512,0.77495 -3.91891,2.50874 -4.69386,4.69386 H 91.718539 c -1.06047,-2.98816 -3.914225,-5.13516 -7.261435,-5.13516 -4.24721,0 -7.70274,3.45553 -7.70274,7.70274 0,4.24721 3.45553,7.70274 7.70274,7.70274 3.34721,0 6.200965,-2.14701 7.261435,-5.13516 h 21.594421 c 1.06046,2.98815 3.91422,5.13516 7.26144,5.13516 3.34721,0 6.20097,-2.14701 7.26143,-5.13516 h 21.59443 c 1.06046,2.98815 3.91422,5.13516 7.26144,5.13516 4.24721,0 7.70274,-3.45553 7.70274,-7.70274 0,-4.24721 -3.45553,-7.70274 -7.70274,-7.70274 z M 97.466166,90.487259 c 1.20088,0.59442 2.609714,1.13535 4.215114,1.61677 5.08167,1.52451 11.79215,2.36432 18.89312,2.36432 7.10096,0 13.81144,-0.83981 18.89311,-2.36432 1.60541,-0.48142 3.01423,-1.02302 4.21511,-1.61744 v 9.08951 c -0.11568,0.35237 -1.48505,1.854811 -6.36078,3.208131 -4.54007,1.26039 -10.48763,1.95444 -16.74744,1.95444 -6.25982,0 -12.20738,-0.69405 -16.74745,-1.95444 -4.875734,-1.35332 -6.245104,-2.855761 -6.360784,-3.208131 z m 0,-15.40548 c 1.20088,0.59442 2.609714,1.13535 4.215114,1.61677 5.08167,1.5245 11.79215,2.36431 18.89312,2.36431 7.10096,0 13.81144,-0.83981 18.89311,-2.36431 1.60541,-0.48142 3.01423,-1.02302 4.21511,-1.61744 v 9.0895 c -0.11568,0.35238 -1.48505,1.85481 -6.36078,3.20814 -4.54007,1.26039 -10.48763,1.95444 -16.74744,1.95444 -6.25982,0 -12.20738,-0.69405 -16.74745,-1.95444 -4.875734,-1.35333 -6.245104,-2.85576 -6.360784,-3.20814 z m 6.360784,-9.46996 c 4.54007,-1.26039 10.48763,-1.95444 16.74745,-1.95444 6.25981,0 12.20737,0.69405 16.74744,1.95444 4.75471,1.31989 6.17557,2.78221 6.35075,3.18072 -0.17518,0.39851 -1.59671,1.86083 -6.35075,3.18073 -4.54007,1.26038 -10.48763,1.95443 -16.74744,1.95443 -6.25982,0 -12.20738,-0.69405 -16.74745,-1.95443 -4.754714,-1.3199 -6.175574,-2.78222 -6.350754,-3.18073 0.17518,-0.39851 1.59604,-1.86083 6.350754,-3.18072 z m -6.360784,49.540931 v -9.26001 c 1.20088,0.59443 2.609714,1.13536 4.215114,1.61678 5.08167,1.5245 11.79215,2.36432 18.89312,2.36432 7.10096,0 13.81144,-0.83982 18.89311,-2.36432 1.60541,-0.48142 3.01423,-1.02302 4.21511,-1.61745 v 9.26068 c -0.11568,0.35238 -1.48505,1.85482 -6.36078,3.20814 -4.54007,1.26039 -10.48763,1.95444 -16.74744,1.95444 -6.25982,0 -12.20738,-0.69405 -16.74745,-1.95444 -4.875734,-1.35332 -6.245104,-2.85576 -6.360784,-3.20814 z m -13.009062,25.8744 c -1.41551,0 -2.56758,-1.15207 -2.56758,-2.56758 0,-1.41552 1.15207,-2.56758 2.56758,-2.56758 1.41551,0 2.56758,1.15206 2.56758,2.56758 0,1.41551 -1.15207,2.56758 -2.56758,2.56758 z m 36.117296,0 c -1.41552,0 -2.56758,-1.15207 -2.56758,-2.56758 0,-1.41552 1.15206,-2.56758 2.56758,-2.56758 1.41551,0 2.56758,1.15206 2.56758,2.56758 0,1.41551 -1.15207,2.56758 -2.56758,2.56758 z m 36.1173,0 c -1.41552,0 -2.56758,-1.15207 -2.56758,-2.56758 0,-1.41552 1.15206,-2.56758 2.56758,-2.56758 1.41551,0 2.56758,1.15206 2.56758,2.56758 0,1.41551 -1.15207,2.56758 -2.56758,2.56758 z m 0,0"
       inkscape:connector-curvature="0"
       style="stroke-width:0.17117204" />
  </g>
</svg>
